<svg width="90" height="90" viewBox="0 0 90 90" fill="none" xmlns="http://www.w3.org/2000/svg">
<path d="M90 73.51C90 82.63 82.67 90 73.64 90H16.36C7.33 90 0 82.63 0 73.51V16.48C0 7.38 7.33 0 16.36 0H73.63C82.66 0 89.99 7.38 89.99 16.48V73.51H90Z" fill="#3f3e3eff"/>
<path d="M70.667 19.3334H19.3337C15.8045 19.3334 12.9491 22.2209 12.9491 25.75L12.917 64.25C12.917 67.7792 15.8045 70.6667 19.3337 70.6667H70.667C74.1962 70.6667 77.0837 67.7792 77.0837 64.25V25.75C77.0837 22.2209 74.1962 19.3334 70.667 19.3334ZM70.667 64.25H19.3337V32.1667L45.0003 48.2084L70.667 32.1667V64.25ZM45.0003 41.7917L19.3337 25.75H70.667L45.0003 41.7917Z" fill="white"/>
</svg>
