<svg width="54" height="54" viewBox="0 0 54 54" fill="none" xmlns="http://www.w3.org/2000/svg">
<g clip-path="url(#clip0_1177_4598)">
<path d="M9.57656 0.675049H44.4656C49.7391 0.675049 54.0422 4.93599 54.0422 10.2516V43.7907C54.0422 49.0641 49.7813 53.3672 44.4656 53.3672H9.57656C4.26094 53.325 0 49.0641 0 43.7485V10.2516C0 4.93599 4.26094 0.675049 9.57656 0.675049Z" fill="#330000"/>
<path d="M26.1139 32.1891H17.7185L16.031 37.4625C15.9889 37.6735 15.8201 37.8 15.6092 37.7578H11.3904C11.1373 37.7578 11.0951 37.6313 11.1373 37.336L18.3935 16.4953C18.4779 16.2844 18.5201 16.0313 18.6045 15.736C18.6889 15.2719 18.731 14.7656 18.731 14.2594C18.6889 14.1328 18.8154 14.0485 18.8998 14.0063H24.7217C24.8904 14.0063 24.9748 14.0906 25.017 14.175L33.2436 37.336C33.3279 37.5891 33.2436 37.7157 33.0326 37.7157H28.3076C28.1389 37.7578 28.0123 37.6313 27.9279 37.4625L26.1139 32.1891ZM19.0264 27.5907H24.7217C24.5951 27.1266 24.4264 26.536 24.2154 25.9875C24.0045 25.3969 23.7935 24.7219 23.6248 24.0469C23.4139 23.3297 23.2029 22.6547 22.992 21.9797C22.781 21.2625 22.5701 20.6297 22.4014 19.9969C22.2326 19.3641 22.0639 18.7735 21.8951 18.225H21.8529C21.642 19.1953 21.3889 20.1656 21.0935 21.136C20.756 22.2328 20.4185 23.3297 20.0389 24.4688C19.7014 25.6078 19.3639 26.6625 19.0264 27.5907ZM38.2639 18.0141C37.5045 18.0563 36.7873 17.761 36.2811 17.2125C35.7748 16.6641 35.4795 15.9047 35.5217 15.1453C35.4795 14.386 35.7748 13.6688 36.3232 13.1625C36.8717 12.6563 37.5889 12.361 38.306 12.361C39.192 12.361 39.867 12.6141 40.3732 13.1625C40.8795 13.711 41.1326 14.4282 41.1326 15.1453C41.1748 15.9047 40.8795 16.6641 40.331 17.2125C39.7826 17.761 39.0232 18.0563 38.2639 18.0141ZM35.7326 37.5469V20.2078C35.7326 19.9969 35.817 19.9125 36.0279 19.9125H40.4998C40.7107 19.9125 40.7951 20.0391 40.7951 20.2078V37.5469C40.7951 37.8 40.7107 37.9266 40.4998 37.9266H36.0701C35.8592 37.8844 35.7326 37.7578 35.7326 37.5469Z" fill="#FF9A00"/>
</g>
<defs>
<clipPath id="clip0_1177_4598">
<rect width="54" height="54" fill="white"/>
</clipPath>
</defs>
</svg>
