<svg width="54" height="54" viewBox="0 0 54 54" fill="none" xmlns="http://www.w3.org/2000/svg">
<g clip-path="url(#clip0_1177_4595)">
<path d="M9.56264 0.675049H44.4374C49.7251 0.675049 54 4.94991 54 10.2377V43.7624C54 49.0502 49.7251 53.3251 44.4374 53.3251H9.56264C4.27486 53.3251 0 49.0502 0 43.7624V10.2377C0 4.94991 4.27486 0.675049 9.56264 0.675049Z" fill="#001E36"/>
<path d="M19.3505 14.0624C18.6755 14.0624 18.0005 14.0624 17.3032 14.0852C16.6054 14.1075 15.9528 14.1075 15.3453 14.1303C14.7378 14.1527 14.1754 14.1527 13.6354 14.175C13.1178 14.1974 12.7579 14.1974 12.3753 14.1974C12.2179 14.1974 12.1504 14.2872 12.1504 14.445V37.5975C12.1504 37.8 12.2403 37.8903 12.4204 37.8903H16.7855C16.9429 37.8675 17.0555 37.7325 17.0328 37.5752V30.3527C17.4601 30.3527 17.7753 30.3527 18.0005 30.375C18.2254 30.3974 18.5853 30.3974 19.1253 30.3974C20.9705 30.3974 22.658 30.1949 24.1878 29.6325C25.6504 29.0925 26.9105 28.1475 27.8104 26.8874C28.7104 25.6274 29.1604 24.0299 29.1604 22.0949C29.1604 21.0824 28.9807 20.115 28.6432 19.17C28.2856 18.2073 27.7253 17.3325 27.0004 16.605C26.1448 15.7738 25.1148 15.1434 23.9853 14.7597C22.7251 14.2872 21.1954 14.0624 19.3505 14.0624ZM19.8526 18.4942C20.6541 18.5094 21.4346 18.6494 22.1628 18.9447C22.8154 19.1924 23.3554 19.6425 23.738 20.2272C24.0969 20.8324 24.2764 21.5271 24.2557 22.2303C24.2557 23.22 24.0304 23.9853 23.5579 24.5477C23.0626 25.11 22.4327 25.5378 21.713 25.7403C20.8802 26.0103 20.0028 26.1449 19.1253 26.1449H17.9326C17.6626 26.1449 17.3707 26.1225 17.0555 26.1002V18.5402C17.2129 18.5174 17.528 18.495 17.9782 18.5178C18.4055 18.495 18.9228 18.495 19.5079 18.495C19.6232 18.4922 19.7381 18.4919 19.8526 18.4942ZM38.723 19.6429C37.1254 19.6429 35.7978 19.8902 34.7405 20.4302C33.7732 20.8803 32.9404 21.6 32.378 22.4999C31.8832 23.3327 31.6127 24.2549 31.6127 25.2227C31.5935 26.0186 31.7713 26.807 32.1304 27.5177C32.5512 28.2744 33.1355 28.9277 33.8407 29.43C34.8304 30.107 35.9045 30.6516 37.0355 31.05C38.1379 31.4774 38.8804 31.8149 39.2407 32.1072C39.6005 32.4 39.7807 32.6924 39.7807 33.0075C39.7807 33.4125 39.533 33.7952 39.1732 33.9525C38.7682 34.155 38.1607 34.2677 37.3055 34.2677C36.4057 34.2677 35.5054 34.155 34.6503 33.9302C33.6684 33.7109 32.727 33.3389 31.8604 32.8278C31.7929 32.7827 31.7254 32.7603 31.6579 32.8054C31.5904 32.8502 31.568 32.94 31.568 33.0075V36.9225C31.5457 37.1027 31.6579 37.26 31.8157 37.3499C32.5453 37.6907 33.3171 37.9329 34.1107 38.07C35.1232 38.2725 36.1353 38.3624 37.1701 38.3624C38.7901 38.3624 40.1405 38.1152 41.2429 37.6427C42.2554 37.2377 43.1329 36.5403 43.7627 35.64C44.3527 34.755 44.6588 33.7111 44.6403 32.6477C44.6624 31.8443 44.4847 31.048 44.123 30.3303C43.6953 29.565 43.0877 28.9352 42.3452 28.4627C41.259 27.7805 40.096 27.2291 38.8804 26.8199C38.3375 26.5952 37.8045 26.3475 37.2828 26.0774C36.9904 25.92 36.7204 25.7175 36.5179 25.4699C36.3829 25.2897 36.293 25.0877 36.293 24.8852C36.293 24.6827 36.3605 24.4578 36.4728 24.2777C36.6305 24.0528 36.8778 23.895 37.1701 23.8275C37.5979 23.7153 38.0704 23.6474 38.5201 23.6697C39.3753 23.6697 40.2076 23.7824 41.0404 23.9625C41.8057 24.1199 42.5254 24.3675 43.2004 24.7278C43.2903 24.7725 43.4029 24.7725 43.6054 24.7278C43.6405 24.7017 43.6691 24.6678 43.6886 24.6286C43.7082 24.5895 43.7183 24.5463 43.718 24.5025V20.8352C43.718 20.7449 43.6953 20.655 43.6729 20.5652C43.6278 20.4753 43.5379 20.385 43.448 20.3627C42.8275 20.109 42.1772 19.9351 41.5129 19.845C40.589 19.7105 39.6566 19.6432 38.723 19.6429Z" fill="#31A8FF"/>
</g>
<defs>
<clipPath id="clip0_1177_4595">
<rect width="54" height="54" fill="white"/>
</clipPath>
</defs>
</svg>
