<svg width="54" height="54" viewBox="0 0 54 54" fill="none" xmlns="http://www.w3.org/2000/svg">
<path d="M41.3438 0H12.6562C5.6664 0 0 5.6664 0 12.6562V41.3438C0 48.3336 5.6664 54 12.6562 54H41.3438C48.3336 54 54 48.3336 54 41.3438V12.6562C54 5.6664 48.3336 0 41.3438 0Z" fill="#242938"/>
<mask id="mask0_1177_4605" style="mask-type:luminance" maskUnits="userSpaceOnUse" x="14" y="8" width="26" height="38">
<path d="M14.7275 8.49341H39.408V45.5067H14.7275V8.49341Z" fill="white"/>
</mask>
<g mask="url(#mask0_1177_4605)">
<path d="M20.8995 45.5066C24.3047 45.5066 27.0683 42.743 27.0683 39.3378V33.1688H20.8995C17.4942 33.1688 14.7305 35.9326 14.7305 39.3378C14.7305 42.743 17.4942 45.5066 20.8995 45.5066Z" fill="#0ACF83"/>
<path d="M14.7305 27.0002C14.7305 23.595 17.4942 20.8314 20.8995 20.8314H27.0683V33.1691H20.8995C17.4942 33.1691 14.7305 30.4055 14.7305 27.0002Z" fill="#A259FF"/>
<path d="M14.7305 14.6622C14.7305 11.257 17.4942 8.49341 20.8995 8.49341H27.0683V20.8312H20.8995C17.4942 20.8312 14.7305 18.0674 14.7305 14.6622Z" fill="#F24E1E"/>
<path d="M27.0684 8.49353H33.2372C36.6424 8.49353 39.4062 11.2571 39.4062 14.6623C39.4062 18.0676 36.6424 20.8313 33.2372 20.8313H27.0684V8.49353Z" fill="#FF7262"/>
<path d="M39.4062 27.0002C39.4062 30.4055 36.6424 33.1691 33.2372 33.1691C29.832 33.1691 27.0684 30.4055 27.0684 27.0002C27.0684 23.595 29.832 20.8314 33.2372 20.8314C36.6424 20.8314 39.4062 23.595 39.4062 27.0002Z" fill="#1ABCFE"/>
</g>
</svg>
