<svg width="55" height="54" viewBox="0 0 55 54" fill="none" xmlns="http://www.w3.org/2000/svg">
<g clip-path="url(#clip0_1177_4601)">
<path d="M45.8691 0H9.13086C4.08803 0 0 4.11003 0 9.18V44.7336C0 49.8036 4.08803 53.9136 9.13086 53.9136H45.8691C50.912 53.9136 55 49.8036 55 44.7336V9.18C55 4.11003 50.912 0 45.8691 0Z" fill="#49021F"/>
<path d="M19.9734 14.1041V37.7332C19.9734 37.9806 19.8627 38.1043 19.6413 38.1043H15.1768C14.9797 38.1043 14.8814 37.9806 14.8818 37.7332V14.1041C14.8818 13.9064 14.9925 13.8075 15.2138 13.8073H19.6782C19.7158 13.802 19.754 13.8049 19.7903 13.8159C19.8266 13.827 19.8601 13.8458 19.8884 13.8712C19.9167 13.8965 19.9392 13.9277 19.9543 13.9627C19.9694 13.9977 19.9767 14.0355 19.9758 14.0737L19.9734 14.1041ZM33.4196 38.4728L33.182 38.4752C31.4838 38.5012 29.8012 38.1464 28.2565 37.4366C26.8174 36.767 25.6145 35.674 24.8068 34.3021C23.9906 32.9392 23.5727 31.2408 23.5529 29.2066L23.5523 29.0533C23.5384 27.3508 23.9712 25.6747 24.807 24.1939C25.6447 22.7261 26.8665 21.5171 28.3397 20.6984L28.4595 20.6327C30.058 19.7425 31.9888 19.2974 34.2521 19.2974L34.2998 19.2976L34.4058 19.3L34.5256 19.3047L34.6595 19.3117L34.8071 19.3209L34.9684 19.3328L35.333 19.3628L35.4327 19.3715V12.0642C35.4327 11.8913 35.5065 11.8046 35.654 11.8044H40.303C40.3331 11.8 40.3637 11.8028 40.3925 11.8124C40.4214 11.8221 40.4475 11.8383 40.469 11.8599C40.4905 11.8815 40.5067 11.9079 40.5163 11.9368C40.5259 11.9658 40.5286 11.9966 40.5243 12.0268V33.9498C40.5257 34.4078 40.5442 34.8656 40.5797 35.3222L40.6145 35.8004L40.6453 36.2456L40.6719 36.6575C40.6765 36.7346 40.6578 36.8112 40.6183 36.8775C40.5788 36.9437 40.5204 36.9964 40.4506 37.0286C39.2513 37.5314 38.0021 37.9044 36.7241 38.1412C35.6338 38.3437 34.5285 38.4547 33.4198 38.4728M35.4329 33.8755V23.7487C35.2335 23.6944 35.0299 23.6572 34.8243 23.6375C34.5729 23.612 34.3204 23.5996 34.0678 23.6003C33.1723 23.5915 32.2876 23.7947 31.4852 24.1939C30.7036 24.5848 30.0362 25.1727 29.5481 25.9003C29.0437 26.642 28.7915 27.6189 28.7917 28.8308C28.7738 29.6393 28.9052 30.4442 29.179 31.2046C29.4021 31.8174 29.7545 32.3743 30.2122 32.8369C30.6503 33.2626 31.1809 33.58 31.7619 33.7642C32.3756 33.9639 33.017 34.0642 33.662 34.0612C34.0062 34.0612 34.3259 34.0488 34.6213 34.0238C34.8569 34.006 35.0904 33.967 35.3191 33.9072L35.4329 33.8755Z" fill="#FF3366"/>
</g>
<defs>
<clipPath id="clip0_1177_4601">
<rect width="55" height="54" fill="white"/>
</clipPath>
</defs>
</svg>
